# xmcd CD database file
# Copyright (C) 1997 Ti Kan
# 
# Track frame offsets:
#     150
#     12467
#     24300
#     34600
#     42150
#     52125
#     62292
#     69945
#     78985
#     89577
#     98707
#     106507
#     116125
#     124960
#     132762
#     143790
#     152575
#     163785
# 
# Disc length: 2301 seconds
# 
# Revision: 1
# Processed by: cddbd v1.5.2PL0 Copyright (c) Steve Scherf et al.
# Submitted via: DiscPlay 4.0.4
# 
DISCID=e408fb12
DTITLE=Jim Reeves - Peace In The Valley
DYEAR=1992
DGENRE=Country
TTITLE0=Four Walls
TTITLE1=Mexican Joe
TTITLE2=Rose Marie
TTITLE3=Blue Boy
TTITLE4=Softly and Tenderly
TTITLE5=He'll Have To Go
TTITLE6=Bimbo
TTITLE7=I'd Like To Be
TTITLE8=Peace In The Valley
TTITLE9=Billy Bayou
TTITLE10=In A Mansion Stands My Love
TTITLE11=I'm Getting Better
TTITLE12=( Gimme That ) Old Tyme Religion
TTITLE13=I Know One
TTITLE14=I Missed Me
TTITLE15=Yonder Comes A Sucker
TTITLE16=Am I Leaving You
TTITLE17=According To My Heart
EXTD=
EXTT0=
EXTT1=
EXTT2=
EXTT3=
EXTT4=
EXTT5=
EXTT6=
EXTT7=
EXTT8=
EXTT9=
EXTT10=
EXTT11=
EXTT12=
EXTT13=
EXTT14=
EXTT15=
EXTT16=
EXTT17=
PLAYORDER=
